<svg version="1.1" xmlns="http://www.w3.org/2000/svg" xmlns:xlink="http://www.w3.org/1999/xlink" xmlns:i="http://ns.adobe.com/AdobeIllustrator/10.0/" xmlns:sketch="http://www.bohemiancoding.com/sketch/ns" height="100%" width="100%" x="0px" y="0px" viewBox="0 0 640 480" xml:space="preserve" preserveAspectRatio="xMidYMid meet" class="">{{text2Gradient}}<rect x="0px" y="0px" width="100%" height="100%" fill="#5d1126"></rect><g class="logo-container-box logoContainerBox" transform="scale(0.99) translate(3.2323232323232105,3.42096941398853)"><g class="containerBody" transform="scale(1.0218758621600763) translate(-6.850417110770195,41.091809054129385)"><g class="sampleIconBox" transform="scale(0.8181818181818182) translate(71.11111111111109,51.19999847412106)"><g class="iconFrame" transform="scale(1) translate(220,31.400000000000006)" fill="#f8901d"><g>
	<path class="st0" d="M197,98L100,1L3,98l2,2l-2,2l97,97l97-97.1l-1.9-1.9L197,98z M4.2,98L100,2.2L195.8,98l-1.3,1.3L100,4.9
		L5.5,99.4L4.2,98z M193.9,100L100,193.9L6.1,100L100,6.1L193.9,100z M195.8,102L100,197.8L4.2,102l1.3-1.3l94.5,94.5l94.5-94.5
		L195.8,102z"></path>
</g></g><g class="sampleIcons_1" transform="scale(1.3951477868665663) translate(181.66004183959961,46.33338350677491)" fill="#f8901d"><g><g><path fill-rule="evenodd" clip-rule="evenodd" d="M49.984,29.656c11.251,0,20.366,9.096,20.366,20.349    c0,7.889-4.476,14.726-11.005,18.097c-0.063-4.238-0.212-9.102-0.444-14.705c3.16-0.814,5.556-5.005,5.556-9.991    c0-5.589-3.011-10.126-6.742-10.126c-3.732-0.021-6.771,4.537-6.771,10.126c0.008,4.986,2.419,9.177,5.573,9.991    c-0.255,6.027-0.349,11.406-0.328,15.99c-1.956,0.655-4.035,0.982-6.205,0.982c-2.302,0-4.513-0.406-6.562-1.084    c-0.063-4.439-0.211-9.708-0.454-15.809h0.287c4.172-0.756,4.5-11.889,4.562-16.695c0-1.23-0.041-1.001-0.207-0.039    c-0.485,2.647-0.844,11.371-5.085,12.611l-0.398-7.668l-0.472-5.905l-0.492,5.905l-0.431,7.742    c-4.418-0.968-4.577-9.854-4.996-12.646c-0.181-1.001-0.181-1.211-0.181,0c0,4.758,0.345,15.939,4.542,16.695h0.484    c-0.241,5.338-0.315,10.15-0.337,14.408c-6.318-3.441-10.609-10.131-10.609-17.88C29.636,38.752,38.733,29.656,49.984,29.656    L49.984,29.656z M49.984,16.781c18.385,0,33.276,14.834,33.276,33.224c0,15.085-10.032,27.814-23.767,31.895    c0.156-3.363,0.178-7.81,0.059-13.356c6.746-3.418,11.318-10.439,11.318-18.538c0.023-11.543-9.359-20.865-20.887-20.865    c-11.523,0-20.845,9.322-20.845,20.865c0,7.915,4.389,14.798,10.856,18.354c0,5.441,0.132,9.967,0.376,13.504    C26.69,77.714,16.75,65.026,16.75,50.005C16.75,31.615,31.623,16.781,49.984,16.781L49.984,16.781z M56.339,69.899    c0.039,5.128,0.179,9.388,0.42,12.685c-2.2,0.421-4.431,0.676-6.774,0.676c-2.324,0-4.646-0.255-6.878-0.723    c0.149-3.224,0.211-7.447,0.149-12.752c2.123,0.723,4.404,1.119,6.729,1.119C52.236,70.887,54.35,70.536,56.339,69.899    L56.339,69.899z M49.984,14.162c19.805,0,35.853,16.051,35.853,35.843c0,16.525-11.143,30.422-26.343,34.583    c0.04-0.716,0.059-1.504,0.105-2.33c13.905-4.117,24.039-17.023,24.039-32.253c0-18.597-15.048-33.655-33.654-33.655    C31.408,16.346,16.33,31.408,16.33,50.005c0,15.192,10.08,28.057,23.915,32.228c0.065,0.812,0.127,1.615,0.167,2.324    c-15.144-4.197-26.249-18.07-26.249-34.552C14.163,30.213,30.201,14.162,49.984,14.162L49.984,14.162z M56.844,82.979    c0.063,0.783,0.126,1.499,0.18,2.182c-2.284,0.471-4.618,0.678-7.039,0.678c-2.418,0-4.787-0.207-7.091-0.678    c0.075-0.683,0.096-1.429,0.153-2.223c2.238,0.466,4.563,0.727,6.938,0.727C52.328,83.664,54.634,83.403,56.844,82.979    L56.844,82.979z"></path></g></g></g></g><g class="sampleTexts_1" transform="scale(1) translate(0,-0.21001281738281818)"><g class="logo--name svgLogoName_1 logoNameBox" transform="scale(1) translate(116.1650037765503,306.98000183105466)" fill="#ffffff"><path d="M24.41-49.61L17.47-49.61L17.47-26.68L22.85-26.68L22.85-26.68Q27.77-26.68 29.60-27.96L29.60-27.96L29.60-27.96Q31.43-29.25 31.51-32.99L31.51-32.99L31.51-32.99Q33.38-33.54 35.26-33.54L35.26-33.54L35.26-33.54Q35.10-30.89 35.10-25.04L35.10-25.04L35.10-25.04Q35.10-18.64 35.26-15.99L35.26-15.99L35.26-15.99Q33.15-15.99 31.67-16.38L31.67-16.38L31.67-16.38Q31.36-20.44 29.52-21.88L29.52-21.88L29.52-21.88Q27.69-23.32 22.85-23.32L22.85-23.32L17.47-23.32L17.47-11.47L17.47-11.47Q17.47-8.11 18.17-6.36L18.17-6.36L18.17-6.36Q18.88-4.60 20.32-3.94L20.32-3.94L20.32-3.94Q21.76-3.28 24.41-3.12L24.41-3.12L24.41-3.12Q24.80-2.03 24.80 0.23L24.80 0.23L24.80 0.23Q21.22 0 14.98 0L14.98 0L14.98 0Q7.41 0 4.37 0.23L4.37 0.23L4.37 0.23Q4.37-2.03 4.76-3.12L4.76-3.12L4.76-3.12Q7.88-3.28 9.01-4.64L9.01-4.64L9.01-4.64Q10.14-6.01 10.14-9.91L10.14-9.91L10.14-42.82L10.14-42.82Q10.14-46.72 9.01-48.09L9.01-48.09L9.01-48.09Q7.88-49.45 4.76-49.61L4.76-49.61L4.76-49.61Q4.37-50.70 4.37-52.96L4.37-52.96L4.37-52.96Q9.52-52.73 17.39-52.73L17.39-52.73L17.39-52.73Q31.36-52.73 39.08-52.96L39.08-52.96L39.08-52.96Q39.86-44.38 40.72-40.64L40.72-40.64L40.72-40.64Q39.55-39.70 37.21-39.70L37.21-39.70L37.21-39.70Q36.82-44.07 34.05-46.84L34.05-46.84L34.05-46.84Q31.28-49.61 24.41-49.61L24.41-49.61ZM73.23 0.70L73.23 0.70Q65.66 0.70 59.81-2.85L59.81-2.85L59.81-2.85Q53.96-6.40 50.73-12.60L50.73-12.60L50.73-12.60Q47.49-18.80 47.49-26.52L47.49-26.52L47.49-26.52Q47.49-34.32 50.88-40.44L50.88-40.44L50.88-40.44Q54.27-46.57 60.16-50.00L60.16-50.00L60.16-50.00Q66.05-53.43 73.23-53.43L73.23-53.43L73.23-53.43Q80.64-53.43 86.53-50.04L86.53-50.04L86.53-50.04Q92.42-46.64 95.73-40.52L95.73-40.52L95.73-40.52Q99.05-34.40 99.05-26.52L99.05-26.52L99.05-26.52Q99.05-18.88 95.73-12.68L95.73-12.68L95.73-12.68Q92.42-6.47 86.53-2.89L86.53-2.89L86.53-2.89Q80.64 0.70 73.23 0.70L73.23 0.70ZM74.79-3.12L74.79-3.12Q79.70-3.12 83.41-5.93L83.41-5.93L83.41-5.93Q87.11-8.74 89.06-13.61L89.06-13.61L89.06-13.61Q91.01-18.49 91.01-24.49L91.01-24.49L91.01-24.49Q91.01-31.43 88.48-37.21L88.48-37.21L88.48-37.21Q85.94-42.98 81.50-46.33L81.50-46.33L81.50-46.33Q77.05-49.69 71.59-49.69L71.59-49.69L71.59-49.69Q66.99-49.69 63.32-47.03L63.32-47.03L63.32-47.03Q59.66-44.38 57.59-39.62L57.59-39.62L57.59-39.62Q55.52-34.87 55.52-28.63L55.52-28.63L55.52-28.63Q55.52-21.92 57.82-16.07L57.82-16.07L57.82-16.07Q60.12-10.22 64.49-6.67L64.49-6.67L64.49-6.67Q68.86-3.12 74.79-3.12L74.79-3.12ZM131.25 0.70L131.25 0.70Q123.68 0.70 117.83-2.85L117.83-2.85L117.83-2.85Q111.98-6.40 108.74-12.60L108.74-12.60L108.74-12.60Q105.51-18.80 105.51-26.52L105.51-26.52L105.51-26.52Q105.51-34.32 108.90-40.44L108.90-40.44L108.90-40.44Q112.29-46.57 118.18-50.00L118.18-50.00L118.18-50.00Q124.07-53.43 131.25-53.43L131.25-53.43L131.25-53.43Q138.66-53.43 144.55-50.04L144.55-50.04L144.55-50.04Q150.43-46.64 153.75-40.52L153.75-40.52L153.75-40.52Q157.06-34.40 157.06-26.52L157.06-26.52L157.06-26.52Q157.06-18.88 153.75-12.68L153.75-12.68L153.75-12.68Q150.43-6.47 144.55-2.89L144.55-2.89L144.55-2.89Q138.66 0.70 131.25 0.70L131.25 0.70ZM132.81-3.12L132.81-3.12Q137.72-3.12 141.43-5.93L141.43-5.93L141.43-5.93Q145.13-8.74 147.08-13.61L147.08-13.61L147.08-13.61Q149.03-18.49 149.03-24.49L149.03-24.49L149.03-24.49Q149.03-31.43 146.50-37.21L146.50-37.21L146.50-37.21Q143.96-42.98 139.51-46.33L139.51-46.33L139.51-46.33Q135.07-49.69 129.61-49.69L129.61-49.69L129.61-49.69Q125.01-49.69 121.34-47.03L121.34-47.03L121.34-47.03Q117.67-44.38 115.61-39.62L115.61-39.62L115.61-39.62Q113.54-34.87 113.54-28.63L113.54-28.63L113.54-28.63Q113.54-21.92 115.84-16.07L115.84-16.07L115.84-16.07Q118.14-10.22 122.51-6.67L122.51-6.67L122.51-6.67Q126.88-3.12 132.81-3.12L132.81-3.12ZM185.36-52.88L185.36-52.88Q198.23-52.88 206.62-47.54L206.62-47.54L206.62-47.54Q215.00-42.20 215.00-27.69L215.00-27.69L215.00-27.69Q215.00-11.23 205.61-5.62L205.61-5.62L205.61-5.62Q196.21 0 185.36 0L185.36 0L185.36 0Q171.01 0 165.16 0.23L165.16 0.23L165.16 0.23Q165.16-2.03 165.55-3.12L165.55-3.12L165.55-3.12Q167.74-3.28 168.87-3.90L168.87-3.90L168.87-3.90Q170.00-4.52 170.51-6.12L170.51-6.12L170.51-6.12Q171.01-7.72 171.01-10.76L171.01-10.76L171.01-42.82L171.01-42.82Q171.01-46.72 169.88-48.09L169.88-48.09L169.88-48.09Q168.75-49.45 165.63-49.61L165.63-49.61L165.63-49.61Q165.24-50.70 165.24-52.96L165.24-52.96L165.24-52.96Q168.83-52.73 176.16-52.73L176.16-52.73L180.76-52.81L180.76-52.81Q182.32-52.88 185.36-52.88L185.36-52.88ZM185.36-3.51L185.36-3.51Q195.50-3.51 201.24-8.78L201.24-8.78L201.24-8.78Q206.97-14.04 206.97-26.52L206.97-26.52L206.97-26.52Q206.97-34.55 203.81-39.82L203.81-39.82L203.81-39.82Q200.65-45.08 195.50-47.50L195.50-47.50L195.50-47.50Q190.36-49.92 184.12-49.92L184.12-49.92L184.12-49.92Q182.71-49.92 181.04-49.73L181.04-49.73L181.04-49.73Q179.36-49.53 178.34-49.22L178.34-49.22L178.34-10.76L178.34-10.76Q178.34-7.72 178.89-6.24L178.89-6.24L178.89-6.24Q179.44-4.76 180.92-4.13L180.92-4.13L180.92-4.13Q182.40-3.51 185.36-3.51L185.36-3.51ZM252.03-9.75L252.03-9.75Q252.03-1.79 250.97 3.12L250.97 3.12L250.97 3.12Q249.92 8.03 246.68 11.93L246.68 11.93L246.68 11.93Q243.45 15.83 236.89 19.42L236.89 19.42L236.89 19.42Q235.80 18.80 235.57 17.39L235.57 17.39L235.57 17.39Q240.25 13.42 242.47 8.93L242.47 8.93L242.47 8.93Q244.69 4.45 244.69-2.65L244.69-2.65L244.69-42.82L244.69-42.82Q244.69-46.72 243.56-48.09L243.56-48.09L243.56-48.09Q242.43-49.45 239.31-49.61L239.31-49.61L239.31-49.61Q238.92-50.70 238.92-52.96L238.92-52.96L238.92-52.96Q242.35-52.73 248.36-52.73L248.36-52.73L248.36-52.73Q254.99-52.73 257.80-52.96L257.80-52.96L257.80-52.96Q257.80-50.70 257.41-49.61L257.41-49.61L257.41-49.61Q254.37-49.45 253.20-48.05L253.20-48.05L253.20-48.05Q252.03-46.64 252.03-42.82L252.03-42.82L252.03-9.75ZM290.47 0.70L290.47 0.70Q282.90 0.70 277.05-2.85L277.05-2.85L277.05-2.85Q271.20-6.40 267.96-12.60L267.96-12.60L267.96-12.60Q264.73-18.80 264.73-26.52L264.73-26.52L264.73-26.52Q264.73-34.32 268.12-40.44L268.12-40.44L268.12-40.44Q271.51-46.57 277.40-50.00L277.40-50.00L277.40-50.00Q283.29-53.43 290.47-53.43L290.47-53.43L290.47-53.43Q297.88-53.43 303.76-50.04L303.76-50.04L303.76-50.04Q309.65-46.64 312.97-40.52L312.97-40.52L312.97-40.52Q316.28-34.40 316.28-26.52L316.28-26.52L316.28-26.52Q316.28-18.88 312.97-12.68L312.97-12.68L312.97-12.68Q309.65-6.47 303.76-2.89L303.76-2.89L303.76-2.89Q297.88 0.70 290.47 0.70L290.47 0.70ZM292.03-3.12L292.03-3.12Q296.94-3.12 300.64-5.93L300.64-5.93L300.64-5.93Q304.35-8.74 306.30-13.61L306.30-13.61L306.30-13.61Q308.25-18.49 308.25-24.49L308.25-24.49L308.25-24.49Q308.25-31.43 305.71-37.21L305.71-37.21L305.71-37.21Q303.18-42.98 298.73-46.33L298.73-46.33L298.73-46.33Q294.29-49.69 288.83-49.69L288.83-49.69L288.83-49.69Q284.23-49.69 280.56-47.03L280.56-47.03L280.56-47.03Q276.89-44.38 274.83-39.62L274.83-39.62L274.83-39.62Q272.76-34.87 272.76-28.63L272.76-28.63L272.76-28.63Q272.76-21.92 275.06-16.07L275.06-16.07L275.06-16.07Q277.36-10.22 281.73-6.67L281.73-6.67L281.73-6.67Q286.10-3.12 292.03-3.12L292.03-3.12ZM330.15-42.82L330.15-42.82Q330.15-46.72 329.02-48.09L329.02-48.09L329.02-48.09Q327.89-49.45 324.77-49.61L324.77-49.61L324.77-49.61Q324.38-50.70 324.38-52.96L324.38-52.96L324.38-52.96Q328.67-52.73 333.82-52.73L333.82-52.73L333.82-52.73Q338.58-52.73 343.26-52.96L343.26-52.96L343.26-52.96Q343.26-50.70 342.87-49.61L342.87-49.61L342.87-49.61Q339.75-49.45 338.62-48.09L338.62-48.09L338.62-48.09Q337.49-46.72 337.49-42.82L337.49-42.82L337.49-9.91L337.49-9.91Q337.49-6.01 338.62-4.64L338.62-4.64L338.62-4.64Q339.75-3.28 342.87-3.12L342.87-3.12L342.87-3.12Q343.26-2.03 343.26 0.23L343.26 0.23L343.26 0.23Q338.58 0 333.82 0L333.82 0L333.82 0Q328.36 0 324.38 0.23L324.38 0.23L324.38 0.23Q324.38-2.03 324.77-3.12L324.77-3.12L324.77-3.12Q327.89-3.28 329.02-4.64L329.02-4.64L329.02-4.64Q330.15-6.01 330.15-9.91L330.15-9.91L330.15-42.82ZM395.89-52.73L395.89-52.73Q400.11-52.73 403.30-52.96L403.30-52.96L403.30-52.96Q403.30-51.01 402.91-49.61L402.91-49.61L402.91-49.61Q401.12-49.61 400.15-48.59L400.15-48.59L400.15-48.59Q399.17-47.58 398.74-45.20L398.74-45.20L398.74-45.20Q398.31-42.82 398.31-38.53L398.31-38.53L398.31 0L398.31 0Q397.06 0.47 394.96 0.47L394.96 0.47L362.74-41.57L362.74-14.59L362.74-14.59Q362.74-10.06 363.21-7.64L363.21-7.64L363.21-7.64Q363.68-5.23 364.85-4.17L364.85-4.17L364.85-4.17Q366.02-3.12 368.13-3.12L368.13-3.12L368.13-3.12Q368.52-1.95 368.52 0.23L368.52 0.23L368.52 0.23Q365.01 0 360.79 0L360.79 0L360.79 0Q355.96 0 352.99 0.23L352.99 0.23L352.99 0.23Q352.99-1.95 353.38-3.12L353.38-3.12L353.38-3.12Q355.49-3.12 356.66-4.17L356.66-4.17L356.66-4.17Q357.83-5.23 358.30-7.64L358.30-7.64L358.30-7.64Q358.77-10.06 358.77-14.59L358.77-14.59L358.77-46.80L358.45-47.19L358.45-47.19Q357.36-48.52 356.39-48.98L356.39-48.98L356.39-48.98Q355.41-49.45 353.38-49.61L353.38-49.61L353.38-49.61Q352.99-51.01 352.99-52.96L352.99-52.96L352.99-52.96Q355.33-52.73 358.77-52.73L358.77-52.73L358.77-52.73Q361.89-52.73 363.99-52.96L363.99-52.96L394.33-12.71L394.33-38.53L394.33-38.53Q394.33-42.90 393.87-45.24L393.87-45.24L393.87-45.24Q393.40-47.58 392.23-48.59L392.23-48.59L392.23-48.59Q391.06-49.61 388.95-49.61L388.95-49.61L388.95-49.61Q388.56-51.87 388.56-52.96L388.56-52.96L388.56-52.96Q391.92-52.73 395.89-52.73L395.89-52.73Z"></path></g><g id="" class="logo--name svgSloganText_1 sloganBox" transform="scale(1) translate(320,345.6)" fill="#7bceef"></g></g></g></g></svg>